# AST/ASF file generated using VICON BodyLanguage
# -----------------------------------------------
:version 1.10
:name VICON
:units
  mass 1.0
  length 0.45
  angle deg
:documentation
   .ast/.asf automatically generated from VICON data using
   VICON BodyBuilder and BodyLanguage model FoxedUp or BRILLIANT.MOD
:root
   order TX TY TZ RX RY RZ
   axis XYZ
   position 0 0 0  
   orientation 0 0 0 
:bonedata
  begin
     id 1 
     name lhipjoint
     direction 0.612567 -0.751349 0.245431 
     length 2.42285 
     axis 0 0 0  XYZ
  end
  begin
     id 2 
     name lfemur
     direction 0.34202 -0.939693 0  
     length 7.11304  
     axis 0 0 20  XYZ
    dof rx ry rz
    limits (-160.0 20.0)
           (-70.0 70.0)
           (-60.0 70.0)
  end
  begin
     id 3 
     name ltibia
     direction 0.34202 -0.939693 0   
     length 7.84529   
     axis 0 0 20   XYZ
    dof rx
    limits (-10.0 170.0)
  end
  begin
     id 4 
     name lfoot
     direction 0.0779239 -0.214094 0.9737   
     length 1.97176   
     axis -90 7.62852e-016 20   XYZ
    dof rx rz
    limits (-45.0 90.0)
           (-70.0 20.0)
  end
  begin
     id 5 
     name ltoes
     direction 1.53565e-011 -4.21709e-011 1   
     length 0.993197   
     axis -90 7.62852e-016 20   XYZ
    dof rx
    limits (-90.0 20.0)
  end
  begin
     id 6 
     name rhipjoint
     direction -0.665722 -0.709315 0.231701   
     length 2.56642  
     axis 0 0 0  XYZ 
  end
  begin
     id 7 
     name rfemur
     direction -0.34202 -0.939693 0   
     length 7.32108   
     axis 0 0 -20   XYZ
    dof rx ry rz
    limits (-160.0 20.0)
           (-70.0 70.0)
           (-70.0 60.0)
  end
  begin
     id 8 
     name rtibia
     direction -0.34202 -0.939693 0   
     length 7.81254   
     axis 0 0 -20   XYZ
    dof rx
    limits (-10.0 170.0)
 end
 begin
     id 9 
     name rfoot
     direction -0.0832806 -0.228812 0.969902   
     length 2.08278  
     axis -90 -7.62852e-016 -20   XYZ
    dof rx rz
    limits (-45.0 90.0)
           (-20.0 70.0)
  end
  begin
     id 10 
     name rtoes
     direction -1.53589e-011 -4.22086e-011 1   
     length 1.04609   
     axis -90 -7.62852e-016 -20   XYZ
    dof rx
    limits (-90.0 20.0)
  end
  begin
     id 11 
     name lowerback
     direction -0.00506013 0.988403 -0.151766   
     length 2.01978   
     axis 0 0 0   XYZ
    dof rx ry rz
    limits (-20.0 45.0)
           (-30.0 30.0)
           (-30.0 30.0)
  end
  begin
     id 12 
     name upperback
     direction -0.00836389 0.99968 0.0238859   
     length 2.01276   
     axis 0 0 0   XYZ
    dof rx ry rz
    limits (-20.0 45.0)
           (-30.0 30.0)
           (-30.0 30.0)
  end
  begin
     id 13 
     name thorax
     direction -0.00684136 0.995386 0.0957043   
     length 2.07303   
     axis 0 0 0   XYZ
    dof rx ry rz
    limits (-20.0 45.0)
           (-30.0 30.0)
           (-30.0 30.0)
  end
  begin
     id 14 
     name lowerneck
     direction -0.0161045 0.999661 0.0204485   
     length 1.91243   
     axis 0 0 0   XYZ
    dof rx ry rz
    limits (-20.0 45.0)
           (-30.0 30.0)
           (-30.0 30.0)
  end
  begin
     id 15 
     name upperneck
     direction 0.0553583 0.990946 -0.122319   
     length 1.91574   
     axis 0 0 0   XYZ
    dof rx ry rz
    limits (-20.0 45.0)
           (-30.0 30.0)
           (-30.0 30.0)
  end
  begin
     id 16
     name head
     direction 0.0180273 0.998839 -0.0446756  
     length 1.92693  
     axis 0 0 0   XYZ
    dof rx ry rz
    limits (-20.0 45.0)
           (-30.0 30.0)
           (-30.0 30.0)
  end
  begin
     id 17 
     name lclavicle
     direction 0.945646 0.319323 -0.0615358  
     length 4.0076  
     axis 0 0 0   XYZ
    dof ry rz
    limits (-20.0 10.0)
           (0.0 20.0)
  end
  begin
     id 18 
     name lhumerus
     direction 1 -4.48967e-011 -2.79996e-027   
     length 5.64147   
     axis 180 -30 -90   XYZ
    dof rx ry rz
    limits (-60.0 90.0)
           (-90.0 90.0)
           (-90.0 90.0)
  end
  begin
     id 19
     name lradius
     direction 1 -4.48976e-011 -9.5122e-027   
     length 2.86444   
     axis 180 -30 -90   XYZ
    dof rx
    limits (-10.0 170.0)
  end
  begin
     id 20
     name lwrist
     direction 1 -4.48983e-011 -1.24047e-026   
     length 1.43222   
     axis 9.05591e-015 90 90   XYZ
    dof ry
    limits (-180.0 0.0)
 end
  begin
     id 21 
     name lhand
     direction 1 -4.4892e-011 -2.48094e-026   
     length 0.722123   
     axis 1.58305e-014 90 90   XYZ
    dof rx rz
    limits (-90.0 90.0)
           (-45.0 45.0)
  end
  begin
     id 22 
     name lfingers
     direction 1 -4.48895e-011 -4.96187e-026   
     length 0.582194   
     axis 3.1661e-014 90 90   XYZ
    dof rx
    limits (0.0 90.0)
  end
  begin
     id 23
     name lthumb
     direction 0.707107 -6.34961e-011 0.707107   
     length 0.835918   
     axis -90 45 2.85299e-015   XYZ
    dof rx rz
    limits (-45.0 45.0)
           (-45.0 45.0)
  end
  begin
     id 24 
     name rclavicle
     direction -0.932635 0.324218 -0.15835   
     length 3.65819  
     axis 0 0 0   XYZ 
    dof ry rz
    limits (-10.0 20.0)
           (-20.0 0.0)
  end
  begin
     id 25 
     name rhumerus
     direction -1 -4.48965e-011 -4.02296e-027  
     length 5.44729   
     axis 180 30 90   XYZ
    dof rx ry rz
    limits (-90.0 60.0)
           (-90.0 90.0)
           (-90.0 90.0)
  end
  begin
     id 26 
     name rradius
     direction -1 -4.48957e-011 -8.81087e-027   
     length 3.08821   
     axis 180 30 90   XYZ
    dof rx
    limits (-10.0 170.0)
  end
  begin
     id 27 
     name rwrist
     direction -1 -4.49015e-011 -1.24047e-026   
     length 1.5441   
     axis 9.05591e-015 -90 -90   XYZ
    dof ry
    limits (-180.0 0.0)
  end
  begin
     id 28
     name rhand
     direction -1 -4.4891e-011 -2.48094e-026   
     length 0.821049   
     axis 1.58305e-014 -90 -90   XYZ
    dof rx rz
    limits (-90.0 90.0)
           (-45.0 45.0)
  end
  begin
     id 29
     name rfingers
     direction -1 -4.48985e-011 -4.96187e-026   
     length 0.661951   
     axis 3.1661e-014 -90 -90   XYZ
    dof rx
    limits (0.0 90.0)
  end
  begin
     id 30
     name rthumb
     direction -0.707107 -6.34906e-011 0.707107   
     length 0.950433   
     axis -90 -45 -2.85299e-015   XYZ
    dof rx rz
    limits (-45.0 45.0)
           (-45.0 45.0)
  end
:hierarchy
  begin
    root lhipjoint rhipjoint lowerback
    lhipjoint lfemur
    lfemur ltibia
    ltibia lfoot
    lfoot ltoes
    rhipjoint rfemur
    rfemur rtibia
    rtibia rfoot
    rfoot rtoes
    lowerback upperback
    upperback thorax
    thorax lowerneck lclavicle rclavicle
    lowerneck upperneck
    upperneck head
    lclavicle lhumerus
    lhumerus lradius
    lradius lwrist
    lwrist lhand lthumb
    lhand lfingers
    rclavicle rhumerus
    rhumerus rradius
    rradius rwrist
    rwrist rhand rthumb
    rhand rfingers
  end

#!OML:ASF F:\VICON\USERDATA\INSTALL\rory3\rory3.ASF
:FULLY-SPECIFIED
:DEGREES
2620
root 3.14277 17.462 0.386543 -559.303 106.873 -553.079
lowerback 1.74268 -2.89104 -12.0746
upperback -3.50838 -4.27326 -9.01047
thorax -4.51671 -1.70025 -2.5521
lowerneck 0.214682 -12.1267 -8.58112
upperneck 10.9059 -17.8925 15.0069
head 5.37908 -8.51631 4.94198
rclavicle 2.70347e-014 8.90555e-014
rhumerus -8.67666 27.0102 -65.2781
rradius 53.5733
rwrist 30.8424
rhand -16.7088 15.8253
rfingers 7.12502
rthumb 9.51629 -13.9398
lclavicle 2.70347e-014 8.90555e-014
lhumerus 42.9193 -71.3569 69.1701
lradius 92.9469
lwrist 16.462
lhand -9.73579 10.491
lfingers 7.12502
lthumb 16.2381 39.8309
rfemur 2.06332 4.10924 22.6901
rtibia 19.3898
rfoot -12.7191 8.24524
rtoes -0.688187
lfemur 7.38746 6.0528 -12.0287
ltibia 19.0902
lfoot -21.7731 8.28992
ltoes -4.91977
2621
root 3.13808 17.4616 0.39149 -560.254 106.958 -553.921
lowerback 1.53377 -2.81499 -12.6042
upperback -3.62717 -4.14716 -9.31866
thorax -4.52411 -1.61015 -2.61656
lowerneck 0.306227 -12.2951 -8.73145
upperneck 11.1454 -18.2191 15.3507
head 5.52527 -8.66064 5.03734
rclavicle -2.06736e-014 1.90833e-014
rhumerus -6.25415 27.7121 -65.1676
rradius 46.5952
rwrist 32.7893
rhand -15.942 16.349
rfingers 7.12502
rthumb 10.2561 -13.381
lclavicle -2.06736e-014 1.90833e-014
lhumerus 45.1029 -72.0223 67.1143
lradius 91.1303
lwrist 16.5474
lhand -9.91787 10.7047
lfingers 7.12502
lthumb 16.0627 40.059
rfemur 2.35656 3.82263 22.9504
rtibia 19.0927
rfoot -12.5705 8.29476
rtoes -1.31168
lfemur 7.45054 5.80784 -11.7625
ltibia 19.2657
lfoot -21.8466 8.46051
ltoes -5.27609
2622
root 3.13406 17.4599 0.397049 -561.367 106.983 -554.981
lowerback 1.32906 -2.73781 -13.0065
upperback -3.76358 -4.01729 -9.62213
thorax -4.56135 -1.52135 -2.74503
lowerneck 0.397704 -12.473 -8.80455
upperneck 11.3244 -18.5361 15.5564
head 5.63295 -8.80625 5.08055
rclavicle -4.13472e-014 3.18055e-015
rhumerus -4.10899 28.5526 -65.1058
rradius 39.8798
rwrist 34.9775
rhand -14.8677 16.0146
rfingers 7.12502
rthumb 11.2924 -13.6614
lclavicle -4.13472e-014 3.18055e-015
lhumerus 47.4652 -72.7637 64.7756
lradius 89.4795
lwrist 16.8242
lhand -10.1154 10.7952
lfingers 7.12502
lthumb 15.8725 40.1647
rfemur 2.69962 3.62482 23.2832
rtibia 18.6181
rfoot -12.3767 8.18692
rtoes -1.37412
lfemur 7.33071 5.57517 -11.429
ltibia 19.674
lfoot -22.0159 8.49603
ltoes -5.41667
2623
root 3.13221 17.4552 0.39729 -563.054 107.038 -556.583
lowerback 1.16167 -2.64623 -13.1225
upperback -3.85013 -3.86431 -9.88606
thorax -4.57982 -1.43616 -2.98226
lowerneck 0.456509 -12.6418 -8.82396
upperneck 11.4297 -18.8128 15.6346
head 5.70141 -8.93805 5.07935
rclavicle -3.02153e-014 -6.04305e-014
rhumerus -2.38285 29.6471 -64.9706
rradius 34.0473
rwrist 36.2305
rhand -14.3595 16.0649
rfingers 7.12502
rthumb 11.7824 -13.5837
lclavicle -3.02153e-014 -6.04305e-014
lhumerus 49.8313 -73.5087 62.3456
lradius 88.0575
lwrist 17.1846
lhand -10.2262 10.797
lfingers 7.12502
lthumb 15.7658 40.1749
rfemur 3.17913 3.37705 23.7794
rtibia 18.0247
rfoot -12.1565 8.08284
rtoes -1.27814
lfemur 7.18353 5.40571 -10.8951
ltibia 20.2419
lfoot -22.3002 8.43209
ltoes -5.74343
2624
root 3.13115 17.4483 0.393876 -565.86 107.26 -559.377
lowerback 0.817078 -2.54867 -12.7753
upperback -3.7875 -3.64217 -10.0208
thorax -4.3495 -1.35204 -3.33212
lowerneck 0.495475 -12.7669 -8.86276
upperneck 11.2329 -18.9968 15.8094
head 5.67949 -9.03233 5.12329
rclavicle 6.36111e-015 1.27222e-014
rhumerus -0.953724 30.2104 -64.8247
rradius 29.215
rwrist 36.7737
rhand -13.7056 16.4076
rfingers 7.12502
rthumb 12.4129 -13.2038
lclavicle 6.36111e-015 1.27222e-014
lhumerus 52.4766 -74.0992 59.6162
lradius 86.8931
lwrist 17.4877
lhand -10.2337 10.9305
lfingers 7.12502
lthumb 15.7586 40.3089
rfemur 3.60957 3.11553 24.6881
rtibia 17.4639
rfoot -11.9566 7.93761
rtoes -1.58861
lfemur 7.00521 5.46062 -9.86238
ltibia 20.793
lfoot -22.4296 8.22568
ltoes -6.3912
